/* XPM */
static char *dcbcdcd7500c453dda62b79a3aa35e75XMfOEAZcKrhDX8w5[] = {
/* columns rows colors chars-per-pixel */
"64 64 90 1 ",
"  c black",
". c #580000",
"X c #770000",
"o c #582200",
"O c #8A0000",
"+ c #9A0000",
"@ c #A90000",
"# c #B30000",
"$ c #BB0000",
"% c #9A2200",
"& c #C30000",
"* c #CC0000",
"= c #D40000",
"- c #DB0000",
"; c #E50000",
": c #EB0000",
"> c #F30000",
", c #FD0000",
"< c #CB2200",
"1 c #FD2300",
"2 c #FC3000",
"3 c #F53900",
"4 c #FD3900",
"5 c #D94800",
"6 c #EC4B00",
"7 c #F44300",
"8 c #FE4300",
"9 c #F44800",
"0 c #FD4A00",
"q c #EE5000",
"w c #EE5900",
"e c #FD5300",
"r c #F55B00",
"t c #FD5B00",
"y c #D17C00",
"u c #E56200",
"i c #EC6500",
"p c #F36400",
"a c #FD6300",
"s c #F56A00",
"d c #FD6D00",
"f c #EC7400",
"g c #F47500",
"h c #FF7000",
"j c #FF7900",
"k c #C28600",
"l c #D49400",
"z c #F58300",
"x c #FC8500",
"c c #F78F00",
"v c #FC8B00",
"b c #E39600",
"n c #EE9C00",
"m c #F69100",
"M c #FC9400",
"N c #F39C00",
"B c #FD9B00",
"V c #E6A000",
"C c #F3A400",
"Z c #FFA300",
"A c #F4AC00",
"S c #FCAD00",
"D c #F9B200",
"F c #FDB200",
"G c #FBB400",
"H c #FEB600",
"J c #FFB700",
"K c #F5C600",
"L c #FFC000",
"P c #FECB00",
"I c #FFCC00",
"U c #FFD100",
"Y c #FAD500",
"T c #FDD600",
"R c #F9D800",
"E c #FBDA00",
"W c #FDDD00",
"Q c #FEDE00",
"! c #FCE600",
"~ c #FFEA00",
"^ c #FBEE00",
"/ c #FFEC00",
"( c #F8F300",
") c #FFF200",
"_ c #F9F400",
"` c #FEF400",
"' c #FBF800",
"] c #FCFA00",
"[ c #FDFD00",
"{ c #FEFE00",
/* pixels */
"                                                                ",
"                                                                ",
"                                                                ",
"                                                                ",
"                                                                ",
"                                                                ",
"                                                                ",
"                                                                ",
"                                                                ",
"                           ...                                  ",
"                         .$;;$                                  ",
"                         #>,,$                                  ",
"                        O;,,:@                                  ",
"                        =,,>&                                   ",
"                       O:,,*                                    ",
"                       #,,:O                                    ",
"                       *,,;                                     ",
"                       &,,;                                     ",
"                       *>,-                                     ",
"                       *,,&                                     ",
"                       ;,,&                                     ",
"                       ;,,*                                     ",
"                       =,,-                                     ",
"                       O>,>O                                    ",
"                        >,,=                                    ",
"                        :,,,$                                   ",
"                        *,,,>O                                  ",
"                        O>,,,;.                                 ",
"                         #,,,,&.                                ",
"                         .-,,,,&.                               ",
"                          O>,,,,-                               ",
"                           <ee0,>=+                             ",
"                           %ahde1,:O                            ",
"                           opdddt1,:*                           ",
"                            5ahhd9,,>$                          ",
"                            @0dhhd0,,>@                         ",
"                            O>dhhhs9,,;O                        ",
"                            #>thhhhi3,,=.                       ",
"                            -,0dhdhhw1,>+                       ",
"                           O>4txBBzhs7,,=                       ",
"                          O:4adMSSmddw,,:                       ",
"                         O=3tdhBFDNhhu>,:.                      ",
"                       O=>4ahhxCDDbsdu:,>X                      ",
"                     .+=,eadhxNDGDVshu:,>X                      ",
"                    O*>,edddxAHFDHAgdu:,:.                      ",
"                   O:,,edhdxnGPIKGSvsu>,:                       ",
"                   #,,4dhhcCFP!]^QHBdi>,:                       ",
"                   -,1rddcAHH!]{{/HBhi,,:                       ",
"                  .:,7shMAHHY_{{{`HBs6,,-                       ",
"                  $>,rhhNHH!_{{{{)HZi:,>#                       ",
"                  -,1ahsCGT`{{{{{~HMi>,;                        ",
"                  ;,2ddilDQ{{{{{)UHvr,>&                        ",
"                  -,2shikGQ^({]^IHZd8,:.                        ",
"                  &,1sddyALLEYELHSMa,,=                         ",
"                  &,,phhgnAGGHHHSBdt,>+                         ",
"                  $,,eshhhznlHHDBja,,*                          ",
"                  +>,,qidhhdfmMvhde,>O                          ",
"                  .*,,,3rshhdhhhht,,:                           ",
"                   O-,,,>4taddhha0,,-                           ",
"                    O=:>,,,18ee01,>&O                           ",
"                      .=-;;:>>>>>;&                             ",
"                            .XOOX.                              ",
"                                                                ",
"                                                                "
};
