/* XPM */
static char *df86960c2048460dea1bfac2a17e4cd71jQ0qa6TD5NBWvWN[] = {
/* columns rows colors chars-per-pixel */
"64 64 89 1 ",
"  c black",
". c #580000",
"X c #770000",
"o c #582200",
"O c #8A0000",
"+ c #9A0000",
"@ c #A90000",
"# c #B30000",
"$ c #BB0000",
"% c #9A2200",
"& c #C30000",
"* c #CC0000",
"= c #D40000",
"- c #DB0000",
"; c #E50000",
": c #EB0000",
"> c #F30000",
", c #FD0000",
"< c #CB2200",
"1 c #FD2300",
"2 c #FC3000",
"3 c #F53900",
"4 c #FD3900",
"5 c #D94800",
"6 c #EC4B00",
"7 c #F44300",
"8 c #FE4300",
"9 c #F44800",
"0 c #FD4A00",
"q c #EE5000",
"w c #EE5900",
"e c #FD5300",
"r c #F55B00",
"t c #FD5B00",
"y c #D17C00",
"u c #E56200",
"i c #EC6500",
"p c #F36400",
"a c #FD6300",
"s c #F56A00",
"d c #FD6D00",
"f c #EC7400",
"g c #F47500",
"h c #FF7000",
"j c #FF7900",
"k c #C28600",
"l c #D49400",
"z c #F58300",
"x c #FC8500",
"c c #F78F00",
"v c #FC8B00",
"b c #E39600",
"n c #EE9C00",
"m c #F69100",
"M c #FC9400",
"N c #F39C00",
"B c #FD9B00",
"V c #E6A000",
"C c #F3A400",
"Z c #FFA300",
"A c #F4AC00",
"S c #FCAD00",
"D c #F9B200",
"F c #FFB300",
"G c #FBB400",
"H c #FFB500",
"J c #FFB700",
"K c #FEBF00",
"L c #F5C600",
"P c #FFC000",
"I c #FBCA00",
"U c #FECB00",
"Y c #FFCC00",
"T c #FFD100",
"R c #FAD500",
"E c #FDD600",
"W c #FBDA00",
"Q c #FDDD00",
"! c #FCE600",
"~ c #FEE700",
"^ c #FDEB00",
"/ c #FBEE00",
"( c #FFEC00",
") c #FFF200",
"_ c #FAF400",
"` c #FEF400",
"' c #FBF800",
"] c #FDF800",
"[ c #FEFE00",
/* pixels */
"                                                                ",
"                                                                ",
"                                                                ",
"                                                                ",
"                                                                ",
"                                                                ",
"                                                                ",
"                                                                ",
"                                                                ",
"                              ...                               ",
"                              $;;$.                             ",
"                              $,,>#                             ",
"                              @:,,:O                            ",
"                               &>,,*                            ",
"                                =,,;O                           ",
"                                O:,,#                           ",
"                                 ;,,*                           ",
"                                 ;,,*                           ",
"                                 ->,&                           ",
"                                 &,,*                           ",
"                                 &,,;                           ",
"                                 *,,;                           ",
"                                 -,,=                           ",
"                                O>,>O                           ",
"                                =,,:                            ",
"                               $,,,:                            ",
"                              O>,,,*                            ",
"                             .:,,,>O                            ",
"                            .&,,,,#                             ",
"                           .&,,,,-.                             ",
"                           ->,,,>O                              ",
"                         +=>,0ee<                               ",
"                        O:,1edha%                               ",
"                       *:,1edhdpo                               ",
"                      $>,,0ddha5                                ",
"                     @>,,eshhd0@                                ",
"                    O;,,9shhdd>O                                ",
"                   .*,,3pdhhdt,#                                ",
"                   +>,1whhdhd0,-                                ",
"                   =>,7shxMBxa4>O                               ",
"                   :,,wdhmSSMda4;O                              ",
"                  .>,>uddnDJBdda4*O                             ",
"                  X>,:uhsbDDCxhda4>=O                           ",
"                  X>,:udsVDGDNxhhae,=+.                         ",
"                  .:,:uhgAJDGGAxhhde,>*O                        ",
"                   :,>usvDSLIUFnzhdde,,:O                       ",
"                   ;,>phBJQ/]!UDCchha4,,#                       ",
"                   :,,ihBJ([[]!JJAchdr1,-                       ",
"                   -,,6sZF)[[[_RFJAMhs7,:.                      ",
"                   #>,;iZJ)[[[[_!JFChdr,>$                      ",
"                    ;,>pMJ^[[[[[_EGCsha1,;                      ",
"                    &>,rvFT)[[[[[QGlihs2,;                      ",
"                    .:,8dZFY/'[_^QFkihs2,-                      ",
"                     =,,aMSJPWWQKKAyshs1,&                      ",
"                     +>,tdBSJJGJGAnghha,,&                      ",
"                      *,,ajBDFDlnzhhdse,,$                      ",
"                      O>,0ddvmmfshhhiq,,>+                      ",
"                       :,,adhhddhhsr3,,,*.                      ",
"                       -,,0ahhhdar4,,,>-O                       ",
"                       O&>,20ee81,,,,:=O                        ",
"                         &;>>>>>:;:-*.                          ",
"                          .XOOX.                                ",
"                                                                ",
"                                                                "
};
