/* XPM */
static char *f0f039bd16a7413fa49f4bed015a0a4fRL9hAQdBTW530uqE[] = {
/* columns rows colors chars-per-pixel */
"64 64 149 2 ",
"   c #353535",
".  c #353935",
"X  c #3B3B3B",
"o  c #403E3F",
"O  c #3B7D15",
"+  c #3B731F",
"@  c #3D7C1B",
"#  c #3B4337",
"$  c #3C4B37",
"%  c #3C423A",
"&  c #3D4A39",
"*  c #3D5336",
"=  c #3F5835",
"-  c #3D5038",
";  c #407F1A",
":  c #41443F",
">  c #414C3D",
",  c #405936",
"<  c #42523D",
"1  c #437E25",
"2  c #437D28",
"3  c #4A7D34",
"4  c #3F3F40",
"5  c #434343",
"6  c #434A43",
"7  c #4B4B4B",
"8  c #465641",
"9  c #4A5A43",
"0  c #495148",
"q  c #4E594A",
"w  c #565656",
"e  c #595D57",
"r  c #585758",
"t  c #5C5C5C",
"y  c #605F5F",
"u  c #576055",
"i  c #596755",
"p  c #5D6F57",
"a  c #5D625C",
"s  c #5F6B5B",
"d  c #5C7154",
"f  c #5D7058",
"g  c #60665F",
"h  c #616A5D",
"j  c #5F5F60",
"k  c #605F60",
"l  c #636363",
"z  c #636A61",
"x  c #676768",
"c  c #6A6A6A",
"v  c #6A7965",
"b  c #6F766E",
"n  c #6E7A6A",
"m  c #70716F",
"M  c #70796D",
"N  c #6F6F70",
"B  c #706F71",
"V  c #747474",
"C  c #787676",
"Z  c #757874",
"A  c #787E76",
"S  c #767578",
"D  c #777878",
"F  c #7D7D7D",
"G  c #3E8316",
"H  c #3F831B",
"J  c #43861D",
"K  c #458C1D",
"L  c #449217",
"P  c #449319",
"I  c #459319",
"U  c #449219",
"Y  c #469219",
"T  c #45911A",
"R  c #45911B",
"E  c #46911A",
"W  c #46911B",
"Q  c #45931A",
"!  c #45931B",
"~  c #46921A",
"^  c #459118",
"/  c #459419",
"(  c #46911C",
")  c #45911A",
"_  c #48901E",
"`  c #438123",
"'  c #438323",
"]  c #448223",
"[  c #448323",
"{  c #438720",
"}  c #438721",
"|  c #448521",
" . c #448523",
".. c #438324",
"X. c #448224",
"o. c #458325",
"O. c #448423",
"+. c #488726",
"@. c #448820",
"#. c #458820",
"$. c #448821",
"%. c #458A21",
"&. c #498D25",
"*. c #468729",
"=. c #468429",
"-. c #48812E",
";. c #498A2A",
":. c #4B8D2A",
">. c #4C8E2B",
",. c #4B8B2E",
"<. c #4B8F2C",
"1. c #4D8D2D",
"2. c #4D8E2D",
"3. c #4D8F2E",
"4. c #4E8F2F",
"5. c #4C8D2B",
"6. c #479021",
"7. c #489021",
"8. c #489022",
"9. c #499022",
"0. c #4D902F",
"q. c #4D902B",
"w. c #4A8130",
"e. c #4A8330",
"r. c #4D8531",
"t. c #4E8C33",
"y. c #4E8B30",
"u. c #508C35",
"i. c #518D35",
"p. c #508A38",
"a. c #528B39",
"s. c #528C3C",
"d. c #538B39",
"f. c #578843",
"g. c #5A8B45",
"h. c #74826F",
"j. c #73826D",
"k. c #728270",
"l. c #778175",
"z. c #778076",
"x. c #768173",
"c. c #788075",
"v. c #798077",
"b. c #788075",
"n. c #7A8079",
"m. c #7F7F81",
"M. c #807F81",
"N. c #808081",
"B. c #8B8B8B",
/* pixels */
"r X 3 O n.F C V l l l l l l l l o X l l X X F F X X X X X X @ -.V B.B.F V B X o V D V V l t X 5 B.B.V V V B l l l t X X X X X 7 ",
"r X J L n.n.V D x l l l l l l l X X l l 4 X D F o X X X X % U 8.F n.F F V V X 5 V V V V l j X 5 M.m.V V l k l l l t X X X X X 7 ",
"l c :.^ c.F D V l l l l l l l l 4 X 5 6 X X F F c x X X X % x.h.D D D C c z X.X.a.f.V B 6 5 X 5 D V x l l j 6 6 6 8 ] ] ] | X.+ ",
"l V <.^ c.M.V C x l l l l l l l o X X X X X F F V V X X X X F F C V V V l l U U U 3.V V X X X o C V l l l k X X X < L U U K U ; ",
"l D 8 $ D F V D l l l l l l l l t t X X X X x l V V X % | *.Z Z V V l l 5 5 $ - - = u.t.| e.m c V V l t 5 5 X $ @.2 $ q M M M h ",
"l V 5   D n.C V l l l l l l l l l l X X X X l l V V X X K 8.V V V V l y X X X X X $ U U U 3.V V V B l y X X X $ ! ` X 7 C V V c ",
"l 7 X X D M.V V l l l l l l l l l l X X X X 5 5 5 5 X 5 n n V V x l l g X X X X X X $ = / 3.V V x l l t X o t i ^ p.c B V V x e ",
"t X X X D M.C V l l l l l l l l l l X X X X X X X X X o V V V V l l l t X X X X X X X & U 3.V V l l l t X 5 l h ! s.V V V m l t ",
"t X ` @.c.F V V V V l l l l l l l l t t X X X X X X V V V V x l l l l l t t X X X X . X $ 8 V V l l l t X & ,.e.- q V V l l l t ",
"t X @.U c.M.V V V V l l l l l l l l l l X X X X X o F F V V l l l l l l l l X X X X X X X 5 V V l l l y X - K | X 7 V N l l l t ",
"t X J / c.M.F F V V l l l l l l l l l l X X X X X 5 F M.V V l l l l l l l l t t t r X X X 5 V V l l l e X * U :.t l V N l l l r ",
"t X J L x.F M.F C V x l l l l l l k g l X X X X X X F F V V l l l l l l l l l l l t X X X 5 V V l l l e X $ U ,.l x V V l l l r ",
"r X J K 4.4.c.F D V V V l l l l l l l l l t X X X 4 F F V V l k l l l l l k l k 4 > %.` X 5 V V l l l i J X.& 6 l c V B l l l r ",
"t X @.^ U W c.M.C V V V l l l l l l l l l l o X X o F F V V l l l l l l l l l l X $ U %.X 5 V V l l l s / | X 6 l l V V l l l r ",
"w j > & K W 3.0.A F V V l l l l l l l l l l X X X X F F V V l l l l l l l l o X X & ^ :.B x 5 5 : : 5 < U o.X X 5 7 D V V c l r ",
"r l 4 X J W U U c.F D V l l l l l l l l l l X X X 5 F m.V V l l l l l l l y X X X $ U <.S N X X X X X $ U | X X X 7 V V V b l r ",
"w l j j & & @.L c.F F F l l l l l l l l l l t t X o m.F F F V V l l l l l g X X X 5 A A V c X X X $ K 1 & & X X X 5 l c V B l r ",
"w l l l 5 X } ^ c.N.M.N.l l l l l l l l l l l l X o F F m.F V V l l l l l t X X X 7 F F C b X X X $ U J X X X X X 5 l c V V l t ",
"w l l l X X & & l l F M.l l l l l l l l l l 5 5 t y 5 6 l x V V l l l k o 5 X X X 5 F F V V t a %.J ^ y.B B B c X X o 7 V V l r ",
"w l l l 4 X X X t l F m.l l l l l l l l l l X X l l 4 X l l C V l l l a X X X X X 6 F F V V l h / K U t.C V V c X X X 7 V N l r ",
"r l l l 5 X 1 J M V F M.l l l l l l l l l g X X l l X X X 5 V V l l l a K J K :.D D M.F V V l t # 0 A n.m.D l k X X X 7 V V V x ",
"r l l l % X J / M V F F l l l l l l l l l l X X l l X X X X V V l l l h ( ( / q.F M.F F C V l j X 7 F F M.D l t X X X 7 V V V c ",
"l V x l 5 X J / c.F F N.l l l l l l l l : o X X o 4 X X X X V V l l o & U K # 6 F F D V l k o 5 F F F F V V l e X X X 5 l x V x ",
"x V l l : X J / c.F F F l l l l l l l l X X X X X X X X X X V V l l X % W J X 5 F F V V l k X 6 F F M.F V V l t . X X 7 l x V x ",
"l C V V 5 X J L x.M.x x l l l l o % &.&.K %.K J K &.N c X : V V X X X X % # X o F F V V k x D F F F V V l l l t X X X X X 7 l t ",
"x V V V 5 X J W c.M.x g l l l l X X K U L / L L / _ V V X X V V X 4 X X X X X 5 F F V V l x F F M.F V V l l l e   X X X X 5 l r ",
"g 5 B C 5 X J L A M.l l 5 5 % 4 X X K W c.c.n.n.Z b l l X X Z V X # K :.D F D D S V l l o o 5 7 C V l l l l l l g r X X X X o y ",
"r X B V : X +.W x.F x l X X X X X X _ _ F F N.F V V l l X X V V o & U >.m.F F F V V l k X X X 5 V V l l l l l l l t X X X X X c ",
"w k 5 X %.K h.A C V o X J K K R % X D F V V V C % 4 X X X X l l K K L q.F D o X X 5 V V V V V V V c l l l l l l l t X 6 l t X c ",
"r k : X J W x.M.C V 4 X K U ^ U % : F M.Z V V V X X X X X % l h U K U q.F D o X X 6 D V V V V V V V l l l l l l y t X 5 l e X c ",
"t o o.K h h F F V V 5 X K ( $ X F F V V V V x l X X X % %.K 8.&.& 5 F F F F l l V m V V l l l l l l l l l l l y X X X * &.=.X x ",
"l X %.U h l F F C V o X K U & X D M.V V V V l l X X X % ( U ( K X 5 F F F F l l V V V V l l l l l l l l l l l t X X X - L X.X t ",
"l V :.L x.F F F V V o X K U A F V C C V l l l k X X X X g l n.F F F F F l l l l l l l l l y X X X - U ( ( ( K U K X.X * ^ d.B x ",
"l V <.K h.F F F S V o X _ _ A M.D V V V l l l l X X X : l l M.M.F F F F l l l l l l l l l t X X X * ^ K U K ( K _ X.X * E d.S x ",
"r l 5 % +.&.< o B V 5 X D A n.M.V V x l l l l l X % K &.F F V V Z V l l l l l l l l l l l l X & ( ` % % % % % 6 l a X 7 V V S x ",
"r l 5 X | U $ X B V 5   F M.F M.D V l l l l l l X X U _ n.F C V V V l l l l l l l l l l l t X & U } X X X X X 5 l t X 0 C V C x ",
"r l o X X X } L M V o X D M.V V V V l l l l l l X % U _ n.M.V V l l k l l l l l l l l y X & W W U u.V D m.F V V V n U d.V C V x ",
"r l 6 X X X ] J n M o   F F D V V V l l l l l l o % U &.F M.V V l l l l l l l l l l l t X & U U &.a.D V F F V V m n U a.V V Z x ",
"r l l l o X X X %.K & X D M.D V l l l l l l l l X % K _ n.M.V V V V l l l l l l l l l y X # U >.Z Z m.F V B X X X , / d.C V V x ",
"w l l l : X X X %.K # X F F C V l l l l l l l l X % U _ n.F C V V V l l l l l l l l g a X & K :.V C F F V c X X X * / d.V V C x ",
"w l l l l l o X V V q.L c.F V D l l l l l l l l X % W _ V V F F l l l l l l l l l s K L U | X 5 M.F V V l t X X X * U y.l x V x ",
"w l l l l l o X c m &.L n.F D V l l l l l l l l X % U &.Z V F F l l l l l l y l t s U U _ ] o 7 F F V B l t X X X , K r.k x V x ",
"w l l l l l 5 X X X K L n.F C C l l l l l l l l X % U &.V V M.F l l l l l l X X X > U %.X 6 F F F F V V l t X o l e X % X 7 C x ",
"w l l l l l 5 4 X X K L F M.V Z x l l l y y l l X % J %.Z V F F l l l l l l X X X & W J X 5 F M.F F V B l t o 6 l t X X X 7 V c ",
"r l l l l l l l 5 X K L F F D V l l l l X X l l X X X 5 V V M.F l l l l l l l l X & K J X 5 F F V V l l l k l l l t X X X 7 V c ",
"r l l l l l l l o X ` K F F C D l l l l X X y t X X X X V V n.A x l l l l l l t : > &.;.6 7 F F V B l l l l l l l t # & X 7 V x ",
"r l l l l l l l : X X X A F V V l l l l X X X X X X X X V V U 8.V V l l l l l l g l l l M.M.F F V V l l l l l l l p U 1 X 7 D x ",
"r l l l l l l l X X # X F m.C D l l l l 5 X 4 X X 5 X X m m U ( m m l l l l l l k l l x M.M.F F V B l l l l l l l p L 1 X 7 V x ",
"l V V V l l l l 5 X K / n.F V V V V l l l l l l l g X X X X ^ K X o l l l l l l l l l x M.F V V V B l l l l l l l p ^ 1 X 5 l r ",
"l V V V l l l k & # J L n.M.V V V V l l l l l l l l 5 X 5 % %.@.& & y y l l l l l g x x M.F V V V V l l l l l l l p K 2 X 6 l r ",
"r l V D l l 5 X %.U U K n.F x l V V l l l l l l l l l l l j X # K J X o l l k l l x F F F F l x V V l l l l l l l t X X X 7 l r ",
"r l V V l y > & 1 J &.&.A M.h h V V x x l l l l l l l l l a X X U K X o l l y y x c M.F F D l l V B l l l l l l t r X X X 5 l r ",
"r l V V 5 X | / & X k l F N.&.L Z V V V l l l l l l l l l l X # ( K X % l y X 5 F M.F F V V C V l k l l l l l t X X X X X 5 x r ",
"r t c V 5 X 1 | > o l l C F q.W n b V V l l l l l l l k l l X X K K X o y y 6 7 F F F F V V V B l l l l l l t t X X & > 6 7 x t ",
"r . X . X X X X y l V C l l _ U ^ ( V C x l l l l l l l l l X # K K X X X o F M.F F V V V B k l l l l l l t X X X = Y d.M.F V x ",
"w X X X & # 5 6 l x V V y y +.| ^ ( Z C l x l l l l l l l y X X U K X X X 5 F F F F V V V V l l l l t t t t   X 5 , 2.g.F F S x ",
"r X X X K L x.M.F M.V D o X X X ( ( n.m.V V l l l l l l l l X X K K X X X : F F V V l l l l l l l t X X X X X 7 M.M.M.F V V V x ",
"t X X X J Y x.F F F V C X X X X K _ n.m.D V l l l l t t y e X # U K X X X 5 F F V B l l l l l g h i 7 5 5 7 5 7 M.M.F D V V V l ",
"t X X X K E x.M.V C l l 4 X X X K 6.n.F F F l l l l X X X X X # E K X X X 5 F F l l l l l l l s L u.M.F N.M.F M.F D l l l l l r ",
"r X X X J E A F V V l l 5 5 X X %.( j.x.F F c l l l X X X X X X E J X X X o F F x l l l l l h d U d.F F F F F F D C l l l l l r ",
"y X X   J E A F V V x k k l 4 4 J U ( ( n.F V V l l X X X X X % U K X X X 5 F F V V g l l h U K U d.N.F V V V m l l l l g l l r ",
"w X X X 1 J A M.D V x l l l 5 5 X.} ( U F M.D V l l X X X X : 5 ( J 7 7 X o V V V V k l s d | +.d.g.F A V V V B l l l l l l t w ",
"w w X X X X S M.S V l l k k k x X X K U F n.D F l l X X X X l l ( q.F D X X X o V V g s / J X 5 M.F V C V V l l l l l l y t     ",
"y r X       c V c c t t t t t t X . ; J m V V V t r       . t e H X.V B       X c x t u J @   X V V c c c x r r t r t r t w     "
};
