/* XPM */
static char *f6a3e7538b6842d4c9fa669f62c1e4ccv0kpPUVlHjHFwcp8[] = {
/* columns rows colors chars-per-pixel */
"64 64 105 2 ",
"   c #282828",
".  c gray16",
"X  c #2A2A2A",
"o  c gray17",
"O  c #2C2C2C",
"+  c #2D2D2D",
"@  c gray18",
"#  c #2F2F2F",
"$  c gray19",
"%  c #313131",
"&  c #323232",
"*  c gray20",
"=  c #343434",
"-  c #353535",
";  c gray21",
":  c #373737",
">  c gray22",
",  c #393939",
"<  c #3A3A3A",
"1  c gray23",
"2  c #3C3C3C",
"3  c gray24",
"4  c #3E3E3E",
"5  c #3F3F3F",
"6  c gray25",
"7  c #414141",
"8  c gray26",
"9  c #434343",
"0  c #444444",
"q  c gray27",
"w  c #464646",
"e  c gray28",
"r  c #484848",
"t  c #494949",
"y  c gray29",
"u  c #4B4B4B",
"i  c #4C4C4C",
"p  c gray30",
"a  c #4E4E4E",
"s  c gray31",
"d  c #505050",
"f  c #515151",
"g  c gray32",
"h  c #535353",
"j  c gray33",
"k  c #555555",
"l  c #565656",
"z  c gray34",
"x  c #585858",
"c  c gray35",
"v  c #5A5A5A",
"b  c #5B5B5B",
"n  c gray36",
"m  c #5D5D5D",
"M  c gray37",
"N  c #5F5F5F",
"B  c #606060",
"V  c gray38",
"C  c #626262",
"Z  c gray39",
"A  c #646464",
"S  c gray40",
"D  c #676767",
"F  c #686868",
"G  c DimGray",
"H  c #6A6A6A",
"J  c gray42",
"K  c #6C6C6C",
"L  c #6D6D6D",
"P  c gray43",
"I  c #6F6F6F",
"U  c gray44",
"Y  c #717171",
"T  c #727272",
"R  c gray45",
"E  c #747474",
"W  c gray46",
"Q  c #767676",
"!  c #777777",
"~  c gray47",
"^  c #797979",
"/  c gray48",
"(  c #7B7B7B",
")  c #7C7C7C",
"_  c gray49",
"`  c #7E7E7E",
"'  c gray50",
"]  c #808080",
"[  c #818181",
"{  c gray51",
"}  c #838383",
"|  c #848484",
" . c gray52",
".. c #868686",
"X. c gray53",
"o. c #888888",
"O. c #898989",
"+. c gray54",
"@. c #8D8D8D",
"#. c #8E8E8E",
"$. c gray56",
"%. c #909090",
"&. c gray57",
"*. c #939393",
"=. c gray58",
/* pixels */
"L ! p r r r r w S F S S F S S F S F ! ! ! ! ! ! ! ! X.O.O.O.O.O.O.X.N N N N N B O.O.O.@.O.O.O.) r x O.) r l ! ! ! ! F F F F F %.",
"/ X.l f f f f f Y ! ! ! ! ! ! ! ! ! X.X.X.X.X.X.X.}   o o o O O O O , 5 , , , , O O O O O O o ; f r O , f B X.X.X.} Y ! ! Y ! @.",
"/ X.l f f f L L ! ! Y Y Y ! Y ! ! Y ! / / / / ! X.X./ / / ! o o O O 5 , O & & O O O O o O & r p f r O & 5 w N F X.X.} } } X.X.X.",
") X.x f f f Y ! Y ! ! ! ! ! Y ! ! Y ! ! ! Y ! ! X.X.X.X.X.} o o O & , , O O O O O O O o O ; f f l r o & , 8 f B X.X.X.O.X.X.X.X.",
"p x f f Y Y Y ! ! Y Y ! ! ! Y ! ! ! Y Y Y ! ! ! ! ! X.X.X.} o o O O O O O O O O O O O ; p p f p & O O & , 8 f f x l x B B ! ! ! ",
"r f f f Y ! ! ! ! ! ! ! Y ! Y ! Y ! ! ! ! ! Y Y ! ! X.X.X.} o O O O O o O O O O O O O ; f f f p O O O & , 8 f f f f f N ! ! Y ! ",
"p f Y Y ! ! Y Y Y ! ! Y ! Y ! ! ! ! } X.X.} X.X.} X.X.X.! Y o O O & p p p p p f L L L Y Y Y Y F O O O O , , 5 8 f f f p w w w 8 ",
"r f Y ! Y ! ! ! Y ! ! Y ! ! ! Y Y ! X.X.O.O.O.O.O.O.X.X.! Y o O O & f f f f f x Y ! ! Y ! ! ! F o O O & 5 , 5 5 f f f p , , , 5 ",
"r f } X.X.} X.X.X.X.X.} X.} X.} X.X.X.} , , 8 w w w , , ; ; o & p p f f f f f x X.} ! Y ! Y ! ! Y B o O O & , 5 8 5 5 5 , ; , o ",
"r f } O.X.X.X.O.X.X.O.O.X.X.X.X.O.O.X.} O O 5 , 5 , O o O O O & f f f f f f f N X.} ! ! ! Y ! Y ! F O O O & , , , , , 5 5 ; O O ",
"f & l x l x x x l x x x x x x x x x x l 5 , O & O O O ; L L L L Y Y } / f f f x X.} Y ! ! ! Y ! ! S O O O O O & O & O O & O O O ",
"r O p f f f f p f f f f f f f f f f f p , , O O O O O & ! ! Y ! ! ! X.} f f f x X.X.Y ! Y ! ! ! ! S O O O O O O O O O O o O O O ",
"r O 5 5 5 5 , 5 p f f f 5 5 , 5 5 5 , 5 , , o & Y Y Y Y ! ! Y ! X.X.X.) f f f p & r X.X.X.} ! Y ! Y Y S O O O O O O O o O O w p ",
"r O , , , 5 , 5 f f f f 5 , 5 , , 5 , 5 5 5 O O ! Y ! ! Y ! ! ! X.X.X.} f f f p o w X.X.X.} ! Y Y ! ! F O O O O O O O o O O w Y ",
"r O O O O O , , 5 , & & O O o O O O O & L Y Y Y Y ! Y ! ! ! X.X.X.} l l x f & & , 5 l N X.X.X.} Y ! ! Y Y Y Y L p p w w 8 w p @.",
"8 O O O o o 5 , 5 , O O O O O O O O o & Y ! Y ! ! ! Y ! Y ! X.X.X.) f f N l o O 5 5 f N X.X.X.} ! ! Y ! Y ! ! ! ! ! Y ! ! ! ! @.",
"! ) , o O O O O O O O O O & ) } } ) Y Y ! ! ! Y Y ! X.X.X.X.X.} x f 5 5 5 5 , , , 5 f f x B X.X.X.} Y ! ! ! Y Y ! ! Y ! ! ! Y @.",
"/ O., O O O O O O o O O o & } X.X.O.! Y ! Y ! ! ! ! X.X.X.X.X.} f p , , , , 5 , 5 8 f f f x X.O.X.} Y ! Y ! ! ! ! Y ! ! Y ! ! @.",
") X.Y Y & O O O O & L L p f X.X.X.X.! ! Y ! Y ! ! ! X.} l l l l 5 5 5 , O O O & , , 5 , 5 8 l B X.X.X.X.X.} ! ! ! ! Y Y ! Y ! @.",
"/ O.! Y & O O O O & Y ! f f } } X.X.! Y ! ! Y ! Y ! X.X.p f f p , , , , O O O & , 5 , 5 , 5 p N } X.} X.X.} Y Y Y ! ! ! ! ! ! X.",
"/ X.x f O O O O L Y ! ! O O & & } X.X.X.! ! Y ! X.X.X.) f f f p , , O O O O O O O O O & , , 5 , 5 5 5 l X.X.X.X.X.X.X.X.X.X.X.} ",
"/ X.l f O O & O Y Y ! ! O O o o X.X.X.X.! Y ! ! X.X.X.} f f f p 5 , O O O O O O O O O O 5 , , 5 5 , 5 f X.X.X.X.} X.X.X.} X.X.} ",
", 5 , 5 O O L ! ! ! Y ! ! Y & O O , } X.X.X.X.X.X.} l f O & , 5 O O O O O , ! L O O O O O O O o o O O O O ; 5 8 5 8 f l l p 5 p ",
"; , , 5 & O L ! Y ! ! ! ! Y & O O ; } } X.X.X.X.X.X.p p O O 5 , O O O O O , ! L & O O & & O O & o o O O O & , , , 8 f p f p , , ",
"w O O O L Y ! Y ! ! ! Y Y ! Y Y O O & ; ! ! Y ! f f f f , , 5 , O O o , Y Y ! Y Y Y Y Y Y Y Y F O O O o O O O O O O O ; 5 , , 5 ",
"x O & O L ! ! ! ! Y ! ! ! ! ! ! O O O O ! Y ! Y f f f p 5 5 , , O O O 5 ! ! ! ! ! ! ! ! Y ! ! F O O O O O O O O O O O & , 5 5 , ",
"F Y ! Y Y ! Y ! Y ! Y ! ! Y ! Y ! Y O O & & f f f f 5 , O O O O O ; ! Y Y ! Y ! ! Y ! Y ! ! ! ! ! Y Y / O./ , , O , f B X.X.X.} ",
"L ! ! ! ! ! ! ! ! ! Y ! ! Y ! ! ! Y ; & O O f p f p , , O O O O & 5 Y ! ! ! Y ! ! Y ! ! ! Y Y ! ! ! ! / X./ , , O , f S } } X.} ",
"/ X.X.X.X.X.! Y ! Y Y ! Y ! Y ! X.X.X.} o o , 5 , , O O O O O ; ! Y ! ! ! ! Y ! ! Y ! ! ! ! ! Y ! ! ! / X./ , ; O , f f f S X.O.",
"! X.X.X.X.X.! ! ! ! ! ! Y ! ! ! X.X.} } O O , 5 5 , O O & O O ; Y ! Y Y Y ! Y ! ! Y ! Y Y Y ! ! ! Y ! / X./ , , O , f f f B X.X.",
"r l Y ! } X.X.X.X.X.X.X.! ! X.X.X.} O & 5 , O O o O O O f p f f ! ! Y ! ! Y ! ! ! ! Y ! ! ! Y / X.X.X.X.X./ , ; O , f f f f f @.",
"r f Y ! } X.X.} X.X.X.X.! ! } X.} } O O , , O O O O & & f f l l ! ! ! ! ! ! ! Y Y ! ! Y ! ! ! ! X.X.} } } ! 5 , O , f f f f f =.",
"r f f f f f Y ! Y ! X.X.X.X.X.X.f f 5 , O O O O f f f f f f ! ! X.X.X.} ! ! ! Y ! Y ! ! X.X.X.X.X.! o O , , 5 , o O O , f f f =.",
"p f f f f f Y Y Y ! } } } } } } f p , , O O O O p p f f f l Y ! } } X.X.! Y ! ! ! ! ! ! X.X.X.X.} ! O & 5 , , ; O O & , f p f =.",
"r f f f f f f l f l f l 5 5 , 5 5 , 5 , O O O O O & f f f f f f f N X.X.X.X.X.X.X.X.X.X.X.) l f f p 5 , 5 ; O O O r ! S 5 , , @.",
"w f f f p f p f f p f p , , 5 5 5 8 , 5 O & O O O & f p f f f f f x } } } X.} } } } } X.} ) f f f r 5 , , , & & & p ! F 5 8 , @.",
"8 o , , , 5 , , , 5 , , 5 , ! ! ! Y f f f f O o O O 5 , , 5 f f f f f p p f p f p f p f p f f f , , 5 ; o 8 ! ! / / X.X.O.! o O.",
"p O , , , , , , , , , , , 5 Y ! Y ! l l l f ; ; O O , , , 5 p f p f p p f f f f f f f f f f p r , 5 , 5 ; r Y ! ! / X.X.X.! , @.",
"r O O O o O o o O o O O O O Y ! ! Y ! ! ! ! Y Y O o O O 5 , , 5 5 , 5 5 f f f f f f f f f p O & 5 8 f x ! Y ! ! Y ! Y / X.X.X.X.",
"l & O & & O & & & & & & & & Y Y ! ! ! Y Y ! ! ! & & & ; , , , , , , , 5 f f p f f f p f f r O O , 8 f N ! ! ! Y Y ! ! / X.X.O.) ",
"F / l f l f ! ! / ! ! ! ! ! ! ! Y ! ! Y ! ! ! Y ! ! ! Y o o o o O & , 5 5 , , , 5 , 5 ; o o O & f x ! ! Y ! ! ! ! ! Y ! Y / X.} ",
"F Y l f f f Y Y Y ! ! Y ! ! Y ! Y ! ! Y ! Y ! / ! ! Y L & O O O O O , ; , , , , , , , , O & ; 5 l N Y ! ! ! Y Y ! Y ! ! ! / X.} ",
"r f f f f f Y ! Y ! ! ! Y Y ! ! ! ! ! ! ! ! X.X.X.} f f f f o O O O O O O O o & 5 , 5 , , r ! Y ! ! ! Y ! Y ! ! ! ! Y Y ! / X.) ",
"r f f f l l Y ! ! ! Y Y ! ! ! Y ! Y Y ! ! ! X.X.} ) f f p p O O O O O O O O O O , , , , , r Y ! ! Y ! Y ! ! Y ! Y ! ! ! ! / X.} ",
"r f f f ! ! Y ! ! Y ! ! Y ! ! ! Y ! Y ! X.X.X.} f f f f , , O o O O O O O O O O o o O O O 5 Y ! ! ! Y ! ! Y ! ! ! Y Y / X.X.X.} ",
"r f f f Y ! Y ! ! Y ! ! ! / Y Y / ! / / X.X.} ) p p p p 5 , O O , , , ; O O O O O O O O o 5 ! ! Y ! Y ! ! Y ! Y ! ! ! / X.X.} ) ",
"r f f f Y Y ! ! ! ! X.X.X.X.! ! X.X.X.X.X.} f p O O , 5 , , O ; ! Y ! L O O O O O O O O o 5 ! ! ! Y ! ! ! ! ! ! Y ! ! / X.) p f ",
"p f f f ! ! ! Y ! ! } X.} } ! ! X.X.} ) } } f p & O , , , , ; , ! ! ! L , , , ; , ; , ; O , L L ! ! ! ! ! ! Y Y ! ! / / X./ f f ",
"r f f f Y ! ! ! X.X.O.X.f f X.X.O.} f f f p 5 , , , O O o ; ! ! ! Y Y ! ! ! ! / ! ! / L O o o w X.X.X.X.X.} ! ! Y / X.X.X.) f f ",
"w p p p Y ! Y ! X.X.) } f f ) } } ) f f p p , 5 , , O O , 5 ! ! ! ! ! ! ! Y ! Y ! Y ! F , , O w ) } ) ) X.} ! ! / ) X.X.) ! f f ",
"p O O O Y ! ! ! } X.f f f f f f f f f f 5 5 , , O O O ; ! ! Y ! Y ! ! Y ! Y ! ! ! Y ! ! ! F 5 , , ; O r O.X.X.O.X.O.O.! f f f f ",
"w O O O F F Y Y ) ) l f f f f f p p f p , , , ; O O 5 8 Y ! ! ! Y ! ! Y ! ! Y ! ! ! Y ! ! Y p r 5 , & r / ) ) ) ) ) ) ! f f f f ",
"r O o o o o Y ! f f f f f f f f , 5 f f , 5 O O O ; ! ! Y ! ! Y ! ! ! Y ! Y ! ! Y Y ! ! Y / O.) , , , ; O ; f f f f f f f f p p ",
"w O 5 5 O o S L f p f p p p p p 5 , r p , , O O 5 w ! Y Y ! ! Y ! Y ! ! ! Y ! Y ! ! ! Y ! ! X.) , 5 5 , O ; p p f f p p p p , 5 ",
"p O Y / & O o o , , , , 5 , 5 , 5 , o O O o O O ! ! ! ! ! ! ! ! Y ! Y ! ! ! Y ! ! ! ! Y ! ! O.) , 5 , , 5 5 , 5 f r , , , , , , ",
"r 5 Y ! w 8 O O , , , , , , , ; ; , O O O O , 5 Y ! Y ! ! Y Y ! ! ! Y ! Y ! ! ! Y Y ! ! / / O.) , , ; , , ; ; 5 p w , , , ; , , ",
"F ! Y ! X.X., O O O O o , , O O O O O O O & ! ! Y ! Y ! Y ! ! ! ! Y ! ! Y ! Y ! ! Y ! / X.X.X.) 5 , O O O O O o O O O O O o o O ",
"F ! ! ! X.X.; O O O O O , , O O O O 5 5 w r ! ! / ! / / / ! ! ! ! / ! / / ! ! ! / ! ! / X.X./ ! ; ; O O 8 , O O O O O & 8 5 5 5 ",
"F ! ! Y X.X., o O o O O o O O O o & ! / O.O.X.O.X.X.X.X.X.X.O.X.X.O.X.O.X.X.Y ! X.O.X.O.X.) , ; o O O w ! F o o O O O r ! ! ! @.",
"F ! ! / X.X.5 , ; , O O ; ; w w w w S F / ! / ) ) / ) ) ) / ) ) / ) / ) X.X./ ) X.X./ / / Y , , O O ; w S B w 8 w 8 w f ! ! ! @.",
"F ! X.X.X.X.l f f f O O f f ! ! Y Y O O , 5 f f f f f f f f f f f f f x X.O.X.X.X.) f f f p , , O , f r O w ! ! ! ! ! Y Y Y ! @.",
"L ) X.X.X.X.l p f f , ; x N ! Y ! Y O O , , r r r r p p r p p p p p f x / / ) / / Y p p p r , ; O , f r O w / ! ! Y ! ! ! ! ! @.",
"/ X.X.X.X.X.l f f f f f Y ! Y ! ! Y O O O O O O O O , 5 5 , 5 , , 5 f f f f f p 5 , , 5 , , O O o , f r O r X.X.Y ! Y ! ! ! ! @.",
"F ! ! ! ! ! p r w r w r S S S S S S O.O.O.O.O.O.O.X.x x x N x N x S r w w w w w B B x x N B O O O ; r p O r ! Y S S S S S S S %."
};
