/* XPM */
static char *_28b9895c3714726db9f7d874e7478b2yhnimjAWVCA4d9E1[] = {
/* columns rows colors chars-per-pixel */
"64 64 205 2 ",
"   c #2F2B20",
".  c #2F2C20",
"X  c #302B20",
"o  c #302B23",
"O  c #302C21",
"+  c #312D22",
"@  c #312D23",
"#  c #332F22",
"$  c #332F23",
"%  c #342F21",
"&  c #342F23",
"*  c #352F23",
"=  c #312D25",
"-  c #302E26",
";  c #312E26",
":  c #352F24",
">  c #353022",
",  c #343023",
"<  c #353023",
"1  c #343024",
"2  c #353024",
"3  c #343124",
"4  c #353124",
"5  c #353025",
"6  c #353125",
"7  c #363024",
"8  c #363025",
"9  c #363125",
"0  c #353126",
"q  c #343127",
"w  c #353127",
"e  c #363126",
"r  c #363127",
"t  c #363226",
"y  c #373226",
"u  c #363227",
"i  c #373227",
"p  c #373327",
"a  c #363228",
"s  c #373328",
"d  c #363229",
"f  c #373229",
"g  c #363329",
"h  c #373329",
"j  c #37332A",
"k  c #363429",
"l  c #37342A",
"z  c #39332A",
"x  c #39342A",
"c  c #38352A",
"v  c #38342C",
"b  c #3A352C",
"n  c #39362D",
"m  c #3A362C",
"M  c #3A362D",
"N  c #3B372D",
"B  c #3A372E",
"V  c #3B372E",
"C  c #3B382F",
"Z  c #3D392E",
"A  c #3D392F",
"S  c #3D3A2F",
"D  c #3E3A2F",
"F  c #353433",
"G  c #353535",
"H  c #363535",
"J  c #363635",
"K  c #363536",
"L  c gray21",
"P  c #363637",
"I  c #3E3930",
"U  c #3D3A30",
"Y  c #3E3A30",
"T  c #3E3B30",
"R  c #3E3A31",
"E  c #393939",
"W  c #3A3939",
"Q  c #3B3A38",
"!  c #3B3B38",
"~  c #3A3A39",
"^  c #3B3A39",
"/  c #3B3B39",
"(  c #3A3A3A",
")  c #3B3A3A",
"_  c #3A3B3A",
"`  c #3B3B3A",
"'  c #3A3A3B",
"]  c gray23",
"[  c #3B3B3C",
"{  c #3C3C3C",
"}  c gray24",
"|  c #3E3D3D",
" . c #3E3E3D",
".. c #3E3E3E",
"X. c #3F3F3F",
"o. c #413C33",
"O. c #423D35",
"+. c #434037",
"@. c #434138",
"#. c #45413A",
"$. c #44423A",
"%. c #45423A",
"&. c #46433A",
"*. c gray25",
"=. c #414140",
"-. c #414141",
";. c #424141",
":. c #414142",
">. c gray26",
",. c #434343",
"<. c #444443",
"1. c #434344",
"2. c #444444",
"3. c gray27",
"4. c #454546",
"5. c #464646",
"6. c gray28",
"7. c #484848",
"8. c #484948",
"9. c #494949",
"0. c gray29",
"q. c gray30",
"w. c #4E4E4E",
"e. c gray31",
"r. c #505050",
"t. c #515151",
"y. c gray32",
"u. c gray33",
"i. c #555555",
"p. c #565656",
"a. c gray34",
"s. c #595856",
"d. c #5A5856",
"f. c #585858",
"g. c gray35",
"h. c #5A5A5A",
"j. c #5B5B5A",
"k. c #5B5B5B",
"l. c #5D5D5B",
"z. c gray36",
"x. c #5D5D5D",
"c. c gray37",
"v. c #5F5F5F",
"b. c #60605D",
"n. c #61605E",
"m. c #62615F",
"M. c #63615F",
"N. c #62625E",
"B. c #62625F",
"V. c #615F60",
"C. c #606060",
"Z. c gray38",
"A. c #626260",
"S. c #636260",
"D. c #626262",
"F. c #636262",
"G. c #626362",
"H. c #626263",
"J. c gray39",
"K. c #656462",
"L. c #656563",
"P. c #646464",
"I. c #656564",
"U. c #656565",
"Y. c #666564",
"T. c #666665",
"R. c #676665",
"E. c gray40",
"W. c #676766",
"Q. c #676767",
"!. c #696765",
"~. c #686766",
"^. c #686867",
"/. c #696967",
"(. c #686868",
"). c #686869",
"_. c DimGray",
"`. c #6A6A68",
"'. c #6B6A68",
"]. c #6A6A69",
"[. c #6A696A",
"{. c #6A6A6A",
"}. c #6B6A6A",
"|. c #6B6B6A",
" X c gray42",
".X c #6C6C6B",
"XX c #6B6B6C",
"oX c #6C6C6C",
"OX c #6D6C6C",
"+X c #6C6D6C",
"@X c #6D6D6C",
"#X c #6C6C6D",
"$X c #6D6C6D",
"%X c #6C6D6D",
"&X c #6D6D6D",
"*X c #6D6D6E",
"=X c gray43",
"-X c #6F6F6F",
";X c gray44",
":X c #717171",
">X c #727272",
",X c gray45",
"<X c #747474",
"1X c gray46",
"2X c #767676",
/* pixels */
"h.J.h.h.J.J.J.J.J.J.J.J.h.h.J.J.J.J.h.h.@XoXoXoX2X2XXXP.P.1 1 4 * 4 4 * 4 * 4 * 4 * 4 * 4 * 4 4 * 4 * 4 * 1 1 z [ 2.h.h.h.h.h.h.",
"h.J.h.h.J.J.J.J.J.J.J.J.h.h.J.J.J.J.h.h.oXoXoXoX2X:X@X/.4 q 4 4 4 * * * * 4 * 4 * * * 4 * 4 4 @ 4 * 4 * 4 : 1 z  .6.h.k.h.h.h.h.",
"y.h.J.J.z.z.z.z.z.z.J.J.h.h.z.z.l.z.h.h.z.v.v.v.-X@X@X~.1 N M.J.M.J.B.J.B.J.B.B.J.B.J.J.B.J.B.J.B.J.B.B.B.s.1 a ' 6.h.z.J.z.h.h.",
"y.h.J.J.k.h.j.j.k.k.J.P.h.k.k.k.k.k.k.k.z.z.h.k.oXoX@X~.1 U @X@X.X@X|.oX|.@XXX@X@XXX|.XXoXoX|.oX|.oX@X|.@XM.1 c ' 2.h.z.J.J.h.h.",
"] :.1.1.:.:.:.:.:.:.1.1.:.:.:.:.:.:.:.:.:.:.:.:.2.0.@X~.1 a 2.0.2X:X,X:X,X:X,X,X,X,X,X,X,X,X,X,X,X,X:X:X@XJ.4 a  . .:.:.1.,.:.:.",
"H ] ] ] ` ` ] ] ` ] [ [ ] ] ] ] [ [ ] ] ] ] ]  .] :.|.~.- a [ :.:X2X2X2X2X2X2X2X2X2X2X,X2X2X,X2X2X2X2X,XoXn.: c ' ` ` ` ] ] ] ] ",
"- a a a a a a z a a a a a a 1 z a a a a 1 z a a a l O.O.4 a '  .J.v.@X:X2X,X@X-X2X,X@X-X@X-X-X-X@X;X2X<XoXn.: 1 a a a a a a 1 z ",
"  1 1 1 1 1 1 1 1 1 1 1 1 1 1 1 1 1 1 1 1 1 1 1 1 1 1 1 4 1 [  .h.z.XXXX2X2XXX@X2X,X@XXXXXXXXX@XoX@X2X:XoXB.: 1 1 1 1 @ q , 4 1 ",
"j.P.P.P.Y.K.N 1 B.P.P.P.P.P.P.P.P.P.P.P.P.P.P.P.P.P.Y.B.1 q [  .h.z.@X@X@X@XXX@X@X@XXX-X,X,X2X,X<X,X2X,X|.B.4 O.P.P.P.P.P.P.P.P.",
"K.oX@XoX|.|.N 1 /.@X@X.X@X@X@X@XoXXX@X@X@X@XoXoX@XoX|.W.1 q [  .h.z.XX@X@XXX@XXXXX@XXX@X2X,X2X,X2X<X2X,XoXB.4 $.@X@XoXoX@X@X@X@X",
"J.|.,X,X@XoXN 1 <.7.:X<X<X:X<X<X,X,X,X,X2X<XoXoX,X,XoXW.1 a [  .k.z.@XXXXX@XXX@XXX@X,X,X-X-X2X,X@X;X2X:XoXJ.1 N 4.a.:X:X:X:X2X:X",
"J.oX<X2XoX|.N 1 `  .:X2X2X2X<X2X<X2X<X2X2X:XoXoX2X2X X|.1 q [  .k.z.XX@X@XXX@XXXXX-X2X,XXX-X2X,X@X@X2X,X|.n.: c [ y.2X2X2X2X2X2X",
").<X@X@XoXXXN 1 ] ] z.z.<X2X<X2X@X-X2X,X@X@X<X,X,X2X X/.1 a [  .k.k.P.P.P.P.XX@X@XXX@X@X2X,X,X2X<X<X<X<XoXn.: a ' 7.z.J.@X@X@XoX",
"|.<X@XoXoX|.N : ]  .h.h.2X<X2X<XoXoX<X2XoXXX2X2X2X:X@XP.1 q [ X.h.k.P.H.P.P.@X@XXX@X@X:X2X2X2X2X2X2X<X,XoXB.* z [ 2.k.V.@XoXoXoX",
"XX2X<X<XoX|.N 4 Q ] a.h.P.P.|.@XoXoX2X<X<X<X@X@X2X<X@X~.1 a ' X.h.h.k.k.H.P.P.P.@XXXH.P.XX@X@X@X@X;X2X,XoXB.1 v [ 4.k.z.H.Q.oXoX",
"|.<X2X2X@X|.N 4 ` ` h.z.P.P.XX@XoXXX<X2X2X<XXX|.2X<X@X~.1 q [  .h.h.h.k.P.H.J.P.XXXXP.P.XX@XXX@XoX@X<X,XoXB.1 a  .4.k.z.H.Q.oXoX",
").<X<X2XoX|.N : ` ` d.h.h.k.P.P.@XoX@X@X@X@XoXoX<X,XoX~.1 a [  .h.h.J.z.z.z.J.J.P.P.P.P.@XXX@X@X<X<X2X,XoXn.: a  .2.h.z.H.|.XXXX",
"|.2X2X<XoXXXN : ` ` h.h.h.h.J.J.oXoXoXoXoXoXoXoX2X2XoX~.1 q ' X.h.h.J.J.h.h.J.J.H.P.P.P.XX@XXX-X2X<X<X,XoXB.* z  .4.h.k.H.P.XX@X",
"H.oX2X2XoX|.N : ] ] a.h.h.h.J.J.P.P.P.P.H.Q.oXoX2X:X|.~.1 a '  .h.z.J.J.J.J.h.z.z.z.P.H.P.Q.XXXXoX-X2X,XoXB.1 a ' 0.J.J.P.P.@XXX",
"J.XX<X<XoXoXN 1 ] ] h.h.h.h.J.J.J.J.J.J.P.H.oX@X2X<X@X~.1 a [  .h.h.J.J.J.J.h.h.h.z.H.P.H.P.XXXXoX-X<X,X|.K.1 l ' 0.J.J.P.P.XX@X",
"H.oX@X@XoX|.N : Q ` h.h.h.h.J.J.k.k.k.k.H.P.<X<X2X,XXX|.1 q '  .h.h.z.h.z.z.J.J.J.J.J.J.k.k.H.Q.oX-X<X,XoXB.* a ' 0.z.z.P.J.P.P.",
"H.oXoX@XoXXXN 1 ]  .s.h.h.h.J.J.h.h.h.k.P.P.2X2X2X<XoXP.1 a '  .h.h.h.h.h.h.J.J.J.J.J.J.k.k.H.Q.XX-X2X,XoXn.4 z  .2.h.z.P.J.J.J.",
"h.J.J.P.oXoXN 1 ] ` a.h.h.h.k.k.h.h.h.h.k.h.k.z.2X,X@XP.1 a  . .h.h.h.h.h.h.h.h.h.h.h.h.k.k.k.v.H.).<X<XoXn.* a ] 2.h.h.z.z.J.J.",
"h.J.H.K.oX|.N 1 ] [ a.h.h.h.h.h.h.h.h.h.h.h.h.k.<X<X@X|.1 q '  .h.h.h.h.h.h.h.h.h.a.h.h.k.f.f.k.J.).<X:XoXJ.* z  .2.h.h.h.z.J.J.",
"h.J.k.k.|.oXN : ] ]  . . . . . . . .X. . . .X. .:.2..X~.1 a  .]  . . . . . . .X. . . . . .X.O.X.X. .:.q.|.B.4 z ' 4.h.h.h.h.k.h.",
"h.J.k.k.|.|.N : Q ] ] ] ] [ [ [ ' ' [ ' [ [ [ [ ] :.@X~.1 1 ] ]  .' ] [ [ [ [ ' ] ] [ [ [ ' [ [ ' ] ] 7.@XB.* a  .4.h.h.h.h.h.h.",
"] X. . .|.|.N 1 1 a 1 a a a q a a a a a a 1 a 1 : z N N : - : a 1 a a a 1 a a : a a a 1 a a a 1 a 1 a z N N i z ' '  . . . . .X.",
"F [ ' ' ).|.N 1 1 : a 1 1 1 1 : 1 1 1 1 i 1 1 : 1 1 a 1 a 1 a : 1 1 1 i 1 i 1 : 1 i 1 1 1 1 1 i i 1 i 1 1 : 1 a '  .'  .' ] ] ] ",
"o 1 : 1 z i 1 1 1 z ~.|.|.|.|.|.|.|.|.|.|.~.|.|.|.|.|.|.|.).|.|.|.|.|.|.|.K.: U |.|.~.|.|.|.|.|.|.|.|.|.|.n.* 1 1 1 : : : i 1 z ",
"@ a i 1 1 i i 1 1 a Q.XX@X|.@XXXoXoXoX|.oXoXoXoXoXoXoXoXoX|.oXoX|.XX|.@XoX~.: U |.XXXXXX|.XX|.XX@XoXXX|.|.n.* : i i i : a 1 i i ",
"V.|.|.|.|.|.|.|.c 1 O.X.,X2X,X,X2X2X<X2X2X2X2X<X2X<X2X<X2X<X2X<X2X<X2X:X@X~.: z  .0.2X<X2X<X2X<X2X<X2X:XoXK.* #.|.|.|.|.|.|.|.|.",
"K.XX|.XX@XoX|.oXc i ' ' ,X2X2X2X2X<X2X<X:X2X<X2X<X2X<X2X<X2X<X2X<X2X2X<X@XP.* 1  .4.<X2X<X2X<X2X<X2X2X,X|.B.4 #.oX|.oXoX|.oXoX|.",
"XX<X2X<X2X<X@XoXz 1 ] ] k.k.XX@XXX-X<X2X@X@X2X<X2X<X2X<X2X<XoXoXXX@X2X,XXXP.1 z ' 1.k.C.<X2X2X,XoX-X<X,XoXB.* a  .y.2X<X2X<X2X<X",
"XX2X<X<X<X<X-XoXc 4 Q ] h.k.|.@XXXoX<X,XoXoX<X2X<X2X<X2X<X<XoXoXoX@X2X<XoXP.1 1 ' :.h.v.2X<X<X,XoX-X<X,X|.n.* z ' r.2X2X<X2X<X2X",
"|.<XoX-X<X2X@XoXz 1 ] ] h.h.J.H.oXoX-XoXoXoX2X<X2X<X2X<X2X<X2X<X2X2X<X,X.XY.7 i ] $.h.J.oX@X2X<XXX-X2X,XoXJ.1 a ' 6.z.P.2X<X2X<X",
"XX<XoXoX2X<X@XoXc 1 ] ] h.k.J.J.oXoXoXoXoXoX<X2X<X2X<X2X<X2X<X2X2X<X2X,X.XY.4 i ] :.h.z.oX-X<X<XoX-X<X,X|.K.1 z [ 2.k.J.<X2X<X2X",
"|.2XoXoX<X2XoXoXb 7 ] ] h.h.h.h.H.P.H.P.oXoXoXoXoXoXoXoX<X<XoXoXoX@X2X,X@XP.1 i  .:.h.z.oX@X2X<X<X2X<X<XoXJ.1 c  .4.h.v.XXoX|.oX",
").<X@XoX<X<X@XoXc i Q ] h.h.h.l.P.H.J.P.oXoXoXoXoXoXoX@X2X<XoXoXoX@X2X2X@XP.4 i ` :.h.z.oX@X<X2X2X<X<X,X|.B.1 a ' 2.k.V.|.XXoXoX",
"H.oX<X2X<X2X@X@Xc 1 ] ] h.h.J.J.J.J.J.J.H.P.oXoXoXoXoX@X2X<X2X<X2X<X,X,X.XY.* i [ 1.H.Q.oXoXoX-X<X,XoXoXXXB.* l [ 0.J.J.J.Q.oXoX",
"J.oX<X<X2X2X@X.Xz * ] Q h.h.J.J.J.J.J.J.P.H.oXoXoXoXoX@X<X2X<X2X<X2X2X2X.X~.4 1 [ 1.H.P.oXoX@X@X2X,XoXoXXXB.* a ' 7.J.J.J.P.oXoX",
"J.XXoXoX2X<X@XoXz i ] ] d.h.h.h.J.J.J.J.J.J.|.oXoXoXoXoXoX@X<X<XoX@X2X,X@XP.1 i ] ,.h.j.P.P.oXoXoX@X2X,XoXB.1 l [ 2.h.z.P.P.J.J.",
"J.oX@XoX<X2X@XoXc 4 Q ] h.h.h.h.J.J.J.J.J.J.XXoXXX|.oXoXoX@X2X<X@X@X2X<X@XP.* i ] :.j.l.P.P.oXoX@X;X<X,XoXB.1 a  .6.k.z.P.H.J.J.",
"V.oX<X2X2X<X@XoXz 4 ] Q h.h.h.h.h.h.P.J.J.J.J.J.J.P.oXoXoXoXoX@X<X2X<X<X.X~.4 i ] 1.K.H.H.P.XX-X2X<X2X,XoXB.1 z ' 7.h.h.z.z.J.J.",
"J.XX:X2X<X2X@XoXz 4 ] ] h.h.h.h.h.z.J.J.J.J.J.J.J.P.XX|.XXXXoX@X2X<X2X<X.XY.* 1 ] :.J.J.J.P.oX@X<X<X<X<XoXn.: c ' 2.h.h.h.z.J.J.",
"H.oXoXoX<X2XoXoXz 4 ] ] h.h.h.h.J.J.h.h.h.h.J.J.J.J.J.J.P.P.oX@X<X2X<X<XoXP.i i ] :.h.h.h.z.XXoXoX-X<X<XoXn.: a  .2.h.h.h.z.P.P.",
"J.XXoXoX2X<X-XoXz i ] Q h.h.h.h.J.J.h.h.h.h.J.J.J.J.J.J.H.H.oX@X,X,X2X<X@XP.1 1 ] :.k.k.k.v.XXXX@X;X<X:XoXB.* z [ 2.h.h.z.z.J.J.",
"h.J.J.J.<X<XoXXXc 4 ] ] h.h.h.h.J.J.J.J.h.h.g.h.J.J.J.J.P.P.oX|.H.P.2X<X@X).: i ] $.k.k.H.P.@X-X<X<XoXoXoXB.1 v [ 4.h.z.J.J.h.h.",
"a.J.J.H.<X2X@XoXc @ ] ] h.h.h.h.J.J.J.J.h.h.h.h.J.J.J.J.P.H.|.|.J.Q.2X<X@XP.* 1 ] :.k.k.H.P.@X-X<X<XoXoXoXB.1 a  .4.h.z.J.C.h.h.",
"y.h.H.J.,X2X@XoXv 1 Q ] h.h.h.h.h.h.h.h.h.h.h.h.J.C.h.h.h.h.h.h.P.P.2X2X.XY.4 i ] :.h.z.P.P.oXoXoX-X<X<XoXM.* a [ 2.h.h.h.z.P.J.",
"y.h.J.J.,X2X@XXXz i ] ] h.h.h.h.h.h.h.h.h.h.h.h.J.J.h.h.h.h.h.h.J.P.,X,X.XY.* i ] :.h.z.P.P.oXoXoX@X<X<X|.n.4 z  .6.h.h.h.z.J.J.",
"y.h.h.h.<X2X@X@Xc 1 ] ] h.h.h.h.h.h.h.h.h.h.h.d.h.h.h.h.h.h.h.h.h.z.2X2X@XP.* 1 ] :.g.z.J.J.P.P.oX-X<X<XoXJ.1 a ' 4.k.h.h.a.h.h.",
"q.u.a.a.@X@XoX@Xz i ] ] a.a.u.a.a.u.a.a.a.u.a.a.a.u.a.a.u.a.a.u.a.k.@X@X.X/.4 p ] :.g.z.J.J.P.P.oXoX<X,X|.B.4 z ' 2.a.a.a.a.a.a.",
"H ' ] ] ] ] |..Xz 4 ] ] ] ] ] P ] ] ] ] Q ] ] ] ] E ] E ] E ] ] ] ] ] :. XW.4 p ] X.k.k.P.P.P.P.oXoXoXoXoXV.4 z ] ] ] ] ] ] ] ] ",
"F ] Q ] Q ] P.P.z 4 Q ] Q Q Q ] Q ] P Q Q ] P ] P ] Q ] P ] Q ] ] ] ] $.P.B.@ 1 ] :.k.k.C.J.C.P.oXoXoXoXoXK.1 c ] Q Q ] ] P ] P ",
"X : * 4 * * @ * * i 1 4 * 4 * * * 4 4 * * * * * 4 * 4 * 4 * 4 * 4 * - * % , q t ] :.k.k.g.h.z.z.oXoX<X<XoXV.* 1 * * 4 * * * * * ",
"z U U U D D D D D D U U D D D D U U D U D D D o.D D D D 4 4 D D D U U D D D 4 t ] X.h.h.h.z.z.z.oX-X2X<XoXn.4 1 D D D D D o.U D ",
"J.oX$XoXoXoXoXoX|.oXoXoX$X$X$X$XoXoXoXoXoX$X$X$XoXoXXX/.q U @XoXoXoXoXoXoX~.: : [ :.g.z.P.P.P.P.oX@X2X,X|.B.4 &.oXoXoXoXoXoXoXoX",
"J.oX=XoX@X@X@XoX@X@X@XoX=XoXoX=X@X@X@X@XoX=XoX=X@X@X@X~.q N Q.).oXoX*X*XoX~.: a [ $.h.z.J.J.J.P.oX@X2X,XoXB.4 +.Q.|.@X@X@X-XoX=X",
"|.<X<X<X2X<X<X2X2X<X2X<X2X2X2X<X2X<X<X2X2X<X2X<X2X2XXX~.@ 1 ]  .oX@X<X<X@X~.: 1 ] :.k.k.J.C.z.z.J.).2X:XoXJ.* a ' e.2X2X<X<X2X<X",
"oX<X<X<X<X<X2X<X<X<X<X,X,X,X<X2X,X,X,X,X<X2X<X2X,X,X@X/.1 a ] :.|.|.<X<X@XP.: i ] :.h.k.C.C.g.z.H.~.2X,X|.n.4 l ' e.:X:X<X>X<X<X",
"|.<XoXoXoXoX<X2XoXoXoXoX|.|.2X<XoXoXoXoX<X2X<X2XXXoXoX).1 a [  .k.z.@X@XoXP.1 i ] :.h.h.h.h.h.h.J.).2X:XoXJ.* a [ 6.k.k.J.).oXoX",
").;XoXoXXXoX:X2X@XoXoXoXoX=X,X<XoXoXoXoX<X,X2X<X@X@XoX~.1 q ]  .a.a.P.P.oXP.4 i ] :.u.u.a.a.a.a.z.J.@X@X|.B.* z [ 4.k.V.J.J.|.[.",
"a.J.J.J.H.J.XX|.oXoXoXoXoXoXoXoX|.XXoXoXoXoX,X<X2X<XoX~.1 a ' ' ] ] ] :.@XP.* i [ [ ' ' ] ] ] ] ] ] ' 0.|.B.: z [ 2.k.k.J.J.J.J.",
"u.k.k.a.h.a.J.J.J.J.V.J.J.J.V.K.J.J.J.H.H.H.|.|.|.|.H.z.  - P G F F H  .K.l.X @ P H G G F F G G H H H :.J.s.@ - P X.e.u.k.k.k.a."
};
